<svg xmlns="http://www.w3.org/2000/svg" viewBox="0 0 530.65 152.21"><defs><style>.cls-1{fill:#fff;}</style></defs><title>章揚印刷logo二版</title><g id="黑底"><path class="cls-1" d="M396.44,124.87c-2.67,0-4.45-2.24-5.44-6.87.56-16.41,1-30.4,1.26-41.6.38-15,.42-17.09.42-17.28V57.18l-1.36,1.37a40.11,40.11,0,0,0-6.89,10.31,141.11,141.11,0,0,0-6.75,12.66,31.24,31.24,0,0,1-8.24,12,6.73,6.73,0,0,1-4.51,2.15c-2.21,0-4.52-1.64-6.84-4.86-.69-2.57-.63-4.31.16-4.9,1-.75,1.33-.79,1.35-.79h0a.41.41,0,0,1-.28-.13l1.32-.8-3.37-11c-1.43-4.65-1.63-5.54-1.65-5.71v-.27l-.16-.17c-3.86-5-4.27-7.34-3.94-8.43A2,2,0,0,1,353,57.35a12.49,12.49,0,0,1,3-.34,23.33,23.33,0,0,1,8.69,2l.49.21.38-.38a48.49,48.49,0,0,0,4.28-4.72l1.59-2a7.62,7.62,0,0,1,9.12.07,4.19,4.19,0,0,1,2.16,2.87c.12,1.23-.65,2.69-2.28,4.32a30.77,30.77,0,0,1-6.15,4.93,11,11,0,0,1-4.26.84,11.89,11.89,0,0,1-1.56-.1l-.79-.1-.1.79c-.28,2.26-.57,4.64-.85,7.17s.38,4.4,2.07,5.41l.35.21.38-.16c2.12-.91,5.54-4.72,10.44-11.64,4.69-6.34,9.16-10.95,13.27-13.7l.36-.23v-.43c0-5.58,1.07-8.07,2.14-8.07a8.93,8.93,0,0,1,4,1.45l1.12.6.34.16.35-.15a125.25,125.25,0,0,1,13.8-5.44,5.74,5.74,0,0,1,2.24-.47c2.48,0,5.28,1.65,8.31,4.88l.09.1.11.06c4.61,2.56,6.8,4.87,6.35,6.68A18,18,0,0,1,430,57.83l0,.08,0,.09a48,48,0,0,0-2.57,13.28,61.74,61.74,0,0,1-2.48,12c-1.81,4.82-4.13,7.28-6.88,7.28a6.55,6.55,0,0,1-2.57-.6,33.43,33.43,0,0,1-11.91-9.46L402,78.67l.89,39.3c-1.31,4.63-3.25,6.88-5.93,6.88A4.81,4.81,0,0,1,396.44,124.87Zm22.4-75c-2.13,0-4.88,1-8.41,3.06a28.08,28.08,0,0,0-7.37,5.65l-.14.18,0,.22a56.36,56.36,0,0,0-.42,12c0,5.31.25,6.54.5,7l.16.32.34.09a16.07,16.07,0,0,0,4.37.7c3.87,0,6.42-2,7.56-5.87a192.41,192.41,0,0,0,4.24-22.43l.13-.92Zm-47.47-4.75a14.06,14.06,0,0,1-6.09-1.49c-2.94-1.47-4.55-3-4.64-4.37-.07-1.2.95-2.52,3.05-3.92,4.4-2.47,8.35-4.59,11.71-6.27a6.34,6.34,0,0,1,2.83-.71c2,0,4.16,1.15,6.29,3.44,2.11,3.2.89,4.43.48,4.83a19.16,19.16,0,0,0-3.83,4.25C378,43.71,374.7,45.14,371.37,45.14Z"/><path class="cls-1" d="M506.49,132.57a12.11,12.11,0,0,1-2.85-.38,72.87,72.87,0,0,1-18.77-6.67,4.91,4.91,0,0,1-2.93-4.76c0-1.41.52-1.41.83-1.41.57,0,1.69.29,3.83,1.67a22,22,0,0,0,9.62,3.91c.58,0,1.13.08,1.62.08,2.21,0,3.63-.6,4.22-1.78l.1-.19v-.21c-.56-10.86-.85-24.72-.85-41.21.28-16.43.85-28.87,1.68-37l.07-.64-.61-.2a8.42,8.42,0,0,0-2.62-.52,2.38,2.38,0,0,0-2.6,1.85l-1.7,3.39v.12c-.84,5.31-1.55,10.85-2.12,16.46a34.71,34.71,0,0,0,.83,9.25,6.8,6.8,0,0,1,.14.72l0,.53.51.21s.64.41.3,4.22a52.48,52.48,0,0,0-.85,10.18c0,4.44-1.78,5-2.36,5.12a2,2,0,0,1-.73.14c-1.59,0-3.92-1.78-5.12-4.76,0-2.19.15-4.8.42-7.78.64-3.53.63-4.9.46-5.57,1-3.72,1.83-4.58,2.13-4.78a2.69,2.69,0,0,1,.79-.41L491,73.27l.16-1.68a138,138,0,0,1,3.34-20.92c1.33-5.3,3.7-8.51,7-9.54l.26-.08.15-.21c1.07-1.47,2.19-2.22,3.32-2.22a4.85,4.85,0,0,1,3.08,1.5c2.94,2.41,4.54,4.5,4.79,6.25v.07l0,.07c.65,2,.06,2.67-.2,2.93a11.37,11.37,0,0,0-3.13,4l-.07.14v.16a314.26,314.26,0,0,0-.42,42.62c.83,11.73,1.26,21.77,1.26,29.83.23,2.5-.11,4.23-1,5.22A4,4,0,0,1,506.49,132.57ZM465,129.72c-.8,0-1.38-1.63-1.55-4.38A172.85,172.85,0,0,0,463,103l-.48-8.2-1,.38a21.81,21.81,0,0,0-6.56,3.93c-3.22,2.76-3.22,3.13-3.22,3.55v.23l.11.19a41.32,41.32,0,0,1,2.48,5,19.18,19.18,0,0,0,1.69,3.43,4.88,4.88,0,0,1-1.15,4.58,1.85,1.85,0,0,1-1.3.8c-.79,0-1.78-1-2.81-2.7-.83-3-1.53-5.54-2.08-7.49l-.4-2.43-1.55-.13a45.77,45.77,0,0,1-3.3,7.86,14.78,14.78,0,0,0-1.73,3,6.53,6.53,0,0,1-4.88,2.39,7.76,7.76,0,0,1-2.92-.64c-1.17-.39-1.82-.92-2-1.63-.36-1.12.3-2.87,1.9-5.08,1-.86,2.86-3.52,7.32-15.42L449.9,71c1.11-2.44,1.77-2.47,1.8-2.47s.31.14.57.53a15,15,0,0,0,3.17,3.17l.2.13h.25c.87,0,2.12-.65,5.29-5.4a66.1,66.1,0,0,1,5.42-7.5l-1-1.24a11.31,11.31,0,0,1-2.82.73,8.81,8.81,0,0,0-3.17,1,.9.9,0,0,1-.34.06c-.48,0-1.6-.31-3.74-2.46A34.38,34.38,0,0,0,452.77,55c-1-.85-1.89-1.53-2-2.1,0-1.84.38-2.48.61-2.71,4.14-3.25,11.13-5.17,13.17-5.68A68.44,68.44,0,0,1,477,42.85l.27,0,.2-.17a2,2,0,0,1,1.32-.57c1.19,0,2.64,1.3,4.22,3.76,2,3.28,2.08,6,.16,8.21-2.82,1.68-5.12,3-7,4.13a10.34,10.34,0,0,0-4.92,4.51l-.34.58.52.43c3.06,2.55,4.39,4.81,4,6.71-.77,1.74-2.61,3.28-5.46,4.58a56.48,56.48,0,0,0-9,5.58,5,5,0,0,1-2.9,1,5.74,5.74,0,0,1-2.55-.67l-.8-.4-.31.84c-1.11,3.06-2.24,6-3.36,8.82-1.74,4.35-1.74,4.68-1.74,4.93v1.18l1.1-.44a47.22,47.22,0,0,0,7.3-4.29A54.83,54.83,0,0,1,463,87.38l.3-.14.1-.32a22.53,22.53,0,0,1,2-4.47c.12-.19.29-.42.47-.42s.77.13,2,1.75l.24.32h.4a10.45,10.45,0,0,0,5.94-2.25,4.5,4.5,0,0,1,2.24-.6,6,6,0,0,1,3.11,1c2.53,2.55,3.07,4,3.07,4.84V90.8a29.46,29.46,0,0,0-.42,8.58c0,2.66-.14,6-.42,9.9-.85,3.9-2.43,3.9-2.95,3.9a3.77,3.77,0,0,1-1.43-.32,13.84,13.84,0,0,0-5-1.17,5.28,5.28,0,0,0-1.93.33l-.46.19-.88,10.59a7.36,7.36,0,0,1-3.43,6.56A2.1,2.1,0,0,1,465,129.72Zm8.5-41.61a2.15,2.15,0,0,0-1.19.42,5.56,5.56,0,0,0-2,2l-.06.13,0,.14c-.27,2.49-.55,4.75-.83,6.71a11.06,11.06,0,0,0,0,6.26l.63,1.88.85-1.79c.34-.71.64-1.34.91-1.89l.25.34a1.73,1.73,0,0,0,1.3.8h0c1.27,0,1.63-1.79,1.82-3.72a51.11,51.11,0,0,0,0-9.42V89.9l0-.06C474.81,88.34,474,88.11,473.47,88.11Z"/><path class="cls-1" d="M309.49,133.16a3.31,3.31,0,0,1-.55,0,4.15,4.15,0,0,1-2.67-1.83,24.84,24.84,0,0,0-10.25-8l-.18-.08-.27,0c-1.37.1-2.49.15-3.42.15a12.36,12.36,0,0,1-2.18-.14,2.2,2.2,0,0,1,.27-.34,19.26,19.26,0,0,1,3.41-2.69l.83-.56-2.65-5.31-1,.51a3.78,3.78,0,0,1-1.52.5.24.24,0,0,1-.13,0,1.74,1.74,0,0,1-.11-.74v-.12c-.17-1,.11-2.94,2.38-6.51l.24-.37-.08-.43a7.92,7.92,0,0,1,.11-4c-.07,1.45.15,2,.53,2.41l.8.79.8-.8c.87-.87,2.18-2.32,3.89-4.31l.07-.09c2.05-3.28,2.33-4.29,2.33-4.9V94.71l-3.18.81-.05,0c-.08,0-8.07,3.3-10.48,3.83a3.27,3.27,0,0,1-.7.09l-.18,0c0-.22.15-1.09,1.54-3.28A45.37,45.37,0,0,1,292.7,93c3.76-2.25,4.53-2.41,4.61-2.42h1.41l-1.51-6.06L296,85c-2.76,1.1-5,1.94-6.65,2.5a19.73,19.73,0,0,1-2.93.18c-1.24,0-2.71-.07-4.36-.21l-.65,0-4.85,6.79,0,.39c.28,7.08.71,13.82,1.28,20.05.69,7.24,1,9.19,1.28,9.91.15,4.23-.71,5.38-1.24,5.69a1.3,1.3,0,0,1-.65.15,5.57,5.57,0,0,1-2.77-1.07,153.44,153.44,0,0,1-15.61-11.82l-.44-.38-.56.15-.2,0c-.56,0-1.27-.6-2-1.68-.86-1.29-.6-2.94.8-5A156,156,0,0,0,268,95.14c5-8.37,6-9.8,6.23-10l.34-.33V80.73l-1-.09c-2.94-.27-7.08-1.94-12.29-5-2.25-1.37-3.47-2.73-3.5-3.92s.88-2.24,2.62-3.46A40.62,40.62,0,0,0,269,63.53c.66-.5,1.35-1,2-1.39a12,12,0,0,0,4.16-3.7l.24-.42-1.77-5.49c-3.32-9.06-2.71-11.18-2.44-11.61a.23.23,0,0,1,.22-.14l.11,0a1.81,1.81,0,0,1,.56-.08c1.33,0,4.3,1,10.89,5.44,2.1,1.4,2.64,2.93,1.74,5l-.57,1c-1.36,2.43-3.06,5.45-3.58,7.54l-.18.7.57.46a9.13,9.13,0,0,0,1.75,1c.92.46,1.71.86,2,1.62a6.36,6.36,0,0,1,.39,3.65l-.62,3.11,1.52.47,1.25-2.91c.84-2,2.4-5.09,4.63-9.27,3-5.58,3.55-6.44,3.66-6.57l.34-.34,0-.52c-.26-3.36.23-5.82,1.46-7.29.15-.21.33-.4.52-.4s1.55.28,4.35,4.83A16.18,16.18,0,0,1,303,52v2.4l.62.31a13.43,13.43,0,0,0,2.8.94,7.19,7.19,0,0,1,2.06.59l1.89,1.88V44.64l-.42-.34c-3.29-2.67-4.43-4-4.83-4.59.95-.21,2.89-.54,6.82-1.06h0l.18,0,.05,0a10,10,0,0,1,3.71-.78,9.12,9.12,0,0,1,6.55,3.08c.81.81,1.72,2,1.49,2.89-.16.61-1,1.78-4.84,2.88-2.13.71-3.53,2.56-4.18,5.49-1.23,3.68-1.09,4.8-.76,5.46l.19.38.4.16c.6.24,1.39.79,1.41,2.7a12.05,12.05,0,0,1-1.93,5l-.19.29V77.19l1.35-.27c4.14-.83,7.84-1.54,11-2.12,4-.36,4.79-.41,4.93-.41h.17l.23-.07a11.35,11.35,0,0,1,4.59-1.13c2.5,0,4.6,1.21,6.43,3.7,1.43,2.15,1.18,2.92,1.07,3.11s-.62.73-2.93.73h0c-.53,0-1.13,0-1.77-.09a90.76,90.76,0,0,0-14.58-1.37c-1.06,0-2.09,0-3.07.09-6.89.81-7.85,1.15-8.15,1.83a8.22,8.22,0,0,0-1.81,4.22c-.38,2.28-.29,3.35.32,4l.38.38.52,0c2-.19,3.92-.28,5.64-.28a27.23,27.23,0,0,1,8.36,1.07A12.61,12.61,0,0,1,333.74,96l.08.12c2.12,2.31,4.37,5.38,3.29,7.28a17.31,17.31,0,0,1-1.52,3.14l-.11.13a161.47,161.47,0,0,1-13.93,17.31l-7.15,7.15A8.88,8.88,0,0,1,309.49,133.16Zm6.27-34.81c-2.46,3.56-5.27,7.48-8.34,11.67a96.6,96.6,0,0,1-7.54,9.23l-1.08,1.07,1.34.72a14.29,14.29,0,0,0,6.55,2,6.07,6.07,0,0,0,3.06-.77,21.84,21.84,0,0,0,3.64-2.3,127.68,127.68,0,0,0,10.74-12.89c4.62-6.47,6.14-10.88,4.8-13.9l-.4-.89-.94.27A9.4,9.4,0,0,1,325,93a7.51,7.51,0,0,1-2.32-.37,5.75,5.75,0,0,0-1.65-.27,2.83,2.83,0,0,0-1.74.53,3,3,0,0,0-1.06,2.52v.37l.23.3a2,2,0,0,1,.22.35h0C318.07,96.53,316.1,96.92,315.76,98.35Zm-43.24,4c-3.61,5.28-6.41,8.79-8.31,10.42l-4.52,4,1.23.81a55.78,55.78,0,0,0,8.24,4.77,3.89,3.89,0,0,0,1.7.45,2.48,2.48,0,0,0,1.18-.29c.93-.49,1.48-1.54,1.69-3.2l1.07-20.24Zm31.14-3.62a29.51,29.51,0,0,0-2.19,2.74,71.33,71.33,0,0,0-7.76,12.07l-.36.73,4,4,.79-1c1.16-1.45,3.47-4.91,6.87-10.29,3.75-5.2,6-8.91,6.91-11.29l.72-1.91-2,.41a8.85,8.85,0,0,0-1.58.47l.25-.19-.64-1.42-7.14,1.43Zm-4.11-16.19v7.51l7.51-9.39Zm-4.14-29.4c-2.27,4.55-4.86,10.44-7.69,17.52-3.2,7.57-4.83,11.51-5.13,12.41l-.86,2.59,2.44-1.22A32.72,32.72,0,0,1,290.73,82c3.39-.75,3.94-.81,4-.82h.59l.33-.5c1.28-1.92,2-5.35,2.32-10.79,0-5.12-.14-10.58-.43-16.27l-.21-4.3Zm6.88,21-1.48,4.44h7.8V70.41Zm-1.1-1.15,2.11.35.18-.72a19.07,19.07,0,0,1,2-4.39A19.52,19.52,0,0,1,307,65.88h.75V64.75c0-1.55-1.75-2.43-2.32-2.71l-3.2-1.6Z"/><path class="cls-1" d="M209.9,136a3.19,3.19,0,0,1-2.9-2.56V111.22l-2.87,1.23c-2.17.93-4.53,1.88-7,2.81a8.53,8.53,0,0,1-1.61.16,11.37,11.37,0,0,1-5.63-1.7,14.52,14.52,0,0,1-2.61-4.06l5-2.13c2.32-1,5.26-2.3,8.73-3.88l.17-.09a31.88,31.88,0,0,1,4.89-2.62H208V86.63L204.15,93c-.54.89-1.93,2.41-5.52,4.57a27.35,27.35,0,0,0-3.29,1.78l0-.44-.73-.12c-.07,0-1.84-.39-5.22-8a69,69,0,0,1-5.66-14.56c-.73-4.43.18-5.17.19-5.18l.23-.17.18-.23a1.64,1.64,0,0,1,1.15-.67l-.47.47,2.63,5.25,1.9-1.15A163.41,163.41,0,0,1,206.29,66c8.18-3.89,10-4.53,10.4-4.64h4.36l-2.32.84A30,30,0,0,0,210,66.82l-9.1,5.67-.81.46c-2.18,1.25-3.92,2.19-5.17,2.82l-5.7,2.28,2.93,2.19a5.74,5.74,0,0,1,.88.85l.3.35.45-.08c.9-.17,1.83-.38,2.83-.65a40.48,40.48,0,0,0,4.3-1.36,28.23,28.23,0,0,0,3.7-2c1-.58,1.88-1.13,2.48-1.42l.11,0,.1-.09a17.73,17.73,0,0,0,1.81-2,9.26,9.26,0,0,1,1.9-2l.06,0c.26,0,1.07.48,2.27,2.3.93,1.41,1.2,2.63.87,2.86s-6.83,3.52-7.4,3.81a73.37,73.37,0,0,1-8.54,3.51c-.88.32-1.68.61-2.38.88l-.71.27.24.73a6.5,6.5,0,0,0,1.34,2.67l1.1,1.09,17.08-5.44,2.55-6A44.52,44.52,0,0,0,220,69.82a33.64,33.64,0,0,1,1.07-4.44l3.82-3.82-.84-1.32-2.11.77.28-1.19-4.77-2.38a4.74,4.74,0,0,0-2.14-.5A9.35,9.35,0,0,0,210.08,59a10.47,10.47,0,0,1-2.58,1.18l-.43-.22-.79.24c-1.6.48-3.4,1.13-5.34,1.93l-1.75-3.51-1.74.66a77.69,77.69,0,0,0-17.38,8.95c-5.42,4-6.93,5.25-7.56,6-4.44,3.12-6.79,3.77-8,3.77h-.26a13.61,13.61,0,0,1-6.15-3.76c-3.14-3.42-3.08-4.68-3.07-4.73l.09,0,.07-.06.14-.17a8,8,0,0,1,1-1.08l.24.12.86-.36a220.55,220.55,0,0,1,23-8.14c10.48-3,11.88-3.29,12-3.3h3.68l-2-3.16c-1.86-2.91-2.3-5.25-1.35-7.15,1.25-2.5,2.37-4.57,3.31-6.14l1.65-2.75L194.54,37a8.2,8.2,0,0,1-5.82-3.54c-.79-1-.75-1.47-.75-1.49h0s.2-.31,1.2-.64l.3-.13a29.43,29.43,0,0,1,6.38-2.74,32.93,32.93,0,0,1,3.4-.89h3.23l-3-6.07a18.3,18.3,0,0,1,3.09-.21,27,27,0,0,1,11.22,2.23l.57.26.61-.1a40.14,40.14,0,0,1,6.1-.56c2.93,0,4.81.58,5.15,1.6l.09.21c.13.28.37.83.25,1.1s-1,.91-2.8,1.37a14,14,0,0,0-6.22,3.42c-2.56,2.57-3,3.37-3,4.36v.92l-.07,0a2.5,2.5,0,0,0-1.24-.33c-1.19,0-2.56.79-4.74,2.72A17.29,17.29,0,0,0,202,49.28l-.76,4.54,3.89-2.47a29.61,29.61,0,0,0,8.3-7.3l0,0,2.2-4.37.06-.3a3.69,3.69,0,0,0-.25-2.29l.82.12a13.4,13.4,0,0,1,5.86,2.54c.6.43,2,1.43.29,5.2l-1.62,3.58,15.12-2.75.45-.46a2.38,2.38,0,0,1,1.71-.8c1.37,0,3.32,1.32,5.47,3.64,1.23,1.33,1.85,2.49,1.67,3.12s-1.33,1.48-4.06,2.19l-.23.08A40,40,0,0,1,233,55.81c-5.07,1-5.81,1.46-6.37,2l-1.45,1.46,1.45,1.45c2.62,2.62,4.23,5.06,4.78,7.26l.05.18c.3.78.82,2.17-2.36,3.76l-.65.32-.3.67A97.09,97.09,0,0,1,223,82.85l-.06.11a46,46,0,0,0-2.51,5.45l-.2.3a4,4,0,0,0-3.39-1.81,5.55,5.55,0,0,0-2,.41l-1,.39-2,7.89,3.06-.47A6.11,6.11,0,0,1,216,95c3.07,0,6.29,2,9.57,6.07,1.14,1.52,1.61,2.8,1.3,3.56-.23.57-1.35,2-6.74,2.81l-8.52,1.21v1.79c0,7.72.17,13.76.49,18a35.55,35.55,0,0,0,.31,6A2.75,2.75,0,0,1,209.9,136Z"/></g><g id="logo_header"><path class="cls-1" d="M119.36,26.7Z"/><path class="cls-1" d="M129.61,119.11c-.08-.56-.18-1.11-.31-1.65a20.3,20.3,0,0,0-1-3.12,28.45,28.45,0,0,0-1.44-3c-.52-.94-1.06-1.85-1.63-2.75s-1.15-1.78-1.74-2.64l-.9-1.29-.89-1.25-3-4.24c-1-1.41-1.89-2.83-2.85-4.24-.75-1.12-1.55-2.25-2.21-3.39s-1.33-2.3-1.93-3.47A31.74,31.74,0,0,1,109,80.87a21.83,21.83,0,0,1-.55-3.83,16.84,16.84,0,0,1,0-1.88c0-.64.1-1.28.19-1.91a28.17,28.17,0,0,1,2.32-7.5c.43-.93.8-2,1.32-2.86.84-1.45,1.7-2.85,2.68-4.26l2.95-4.19.73-1,.77-1.06,1.54-2.12c1-1.43,2-2.83,3.07-4.34,1.2-1.78,2.39-3.61,3.48-5.57A23.48,23.48,0,0,0,130,33.7l.12-.65.05-.32,0-.29,0-.26c0-.15.05-.35.06-.5,0-.31,0-.55,0-.74V30.4c0-.19,0-.47,0-.83l0-.27,0-.13,0-.28-.09-.63a10.26,10.26,0,0,0-.35-1.5l-.06-.19-.07-.25a5.65,5.65,0,0,0-.33-.93l-.45-1c0-.06-.13-.28-.21-.42s-.16-.29-.23-.41l-.33-.52-.31-.48,0,0c.74-.44.37-.23,0,0l-.11-.17-.13-.21h0c-.14-.22-.3-.45-.44-.63l-.18-.24a4.13,4.13,0,0,0-.3-.37l-.43-.5c-.28-.34-.62-.64-.93-.95s-.65-.58-1-.87l-.24-.2-.21-.17-.53-.41a23.39,23.39,0,0,0-2.14-1.38l-.81-.45c-.3-.17-.61-.32-.9-.46-.57-.28-1.14-.53-1.73-.77a34.05,34.05,0,0,0-3.56-1.24h0l-.31-.09h0c-.65-.18-1.33-.34-2-.47s-1.28-.24-1.91-.36l-1-.18c-.34-.06-.68-.12-1-.15L106,12c-.64-.09-1.28-.11-1.92-.14l-.95-.05-1,0c-.68,0-1.33,0-1.95,0h-.92c-.33,0-.65,0-1,0-1.65.08-3.3.14-5,.37s-3.27.48-4.89.8c0,0,0-.14-.11-.13q-2.86.42-5.7,1.05c-.94.22-1.88.45-2.81.71L78.34,15,77,15.49c-1.41.48-2.83,1-4.24,1.6-.7.29-1.44.62-2.09.93s-1.38.65-2,1c-1.36.69-2.68,1.43-4,2.18l-1,.57c-.34.2-.67.42-1,.63-.65.42-1.26.83-1.89,1.26A74.34,74.34,0,0,0,53.85,29c-1.1,1-2.16,2-3.21,3s-2,2.12-3,3.24a61.94,61.94,0,0,0-7.74,11.39,62.79,62.79,0,0,0-5,12.8A65.94,65.94,0,0,0,33.48,66c-.17,1.09-.32,2.2-.44,3.3l-.08.83v.21l0,.42c-.06,1.05-.11,2.11-.08,3.16a3.48,3.48,0,0,0,.72,2,7,7,0,0,0,.17-.81c0-.37,0-.74.05-1.1a8.73,8.73,0,0,0,.4-2,4.17,4.17,0,0,1,.14-1.06,3,3,0,0,0,.08-.51v-.13l0-.5c0-.35,0-.69,0-1a8,8,0,0,1,.16-1c.57-3.3,1.42-6.45,2.3-9.79a30.88,30.88,0,0,1,2-5c.36-.77.79-1.5,1.13-2.25C41,48.79,41.84,46.88,42.9,45a16,16,0,0,1,2.91-4,14,14,0,0,0,1.34-1.71,23.35,23.35,0,0,1,2.27-3,9.22,9.22,0,0,0,2.47-2.78,14.13,14.13,0,0,1,2-1.83c.8-.65,2.07-1.4,2.35-1.74a10.93,10.93,0,0,1,3.2-2.54,9.13,9.13,0,0,0,1.34-.93,25.42,25.42,0,0,1,5.34-3.64l.53-.93c1.16-.5,1.87-.27,3.14-1.35,0,0,.61-.19.94-.29a11.58,11.58,0,0,0,1.46-.44c1.69-.71,3.43-1.3,5.17-1.86s3.51-1,5.28-1.47c1-.23,1.91-.63,2.92-.92,2.06-.13,4.85-.49,7-.85.67-.12,1.34-.2,2-.26s1.34-.06,2-.07,1.33,0,2,0,1.32.08,2,.12H99c-1.33,0-2.66.1-4,.16a71.68,71.68,0,0,0-15.75,2.91,69,69,0,0,0-7.48,2.87,71,71,0,0,0-7.06,3.74,67.39,67.39,0,0,0-12.34,9.86A63.09,63.09,0,0,0,43,46.51,59.38,59.38,0,0,0,35.07,75.9c0,1.64.07,3.29.21,4.93A37.8,37.8,0,0,0,36,89.09a58.29,58.29,0,0,0,2.91,9.85q.93,2.4,2.07,4.72.56,1.16,1.17,2.28c.43.75.85,1.51,1.31,2.25.19.32.38.64.58,1l.61.92c.41.6.82,1.23,1.27,1.84l1.32,1.79c.42.6.89,1.15,1.31,1.72A22.8,22.8,0,0,0,50,117.24l.75.85.38.42c.13.15.27.29.4.43,1.09,1.13,2.2,2.18,3.36,3.22,2.32,2,4.77,3.93,7.22,5.77.41.3.84.61,1.3.92.23.16.47.31.71.45l.71.42a27,27,0,0,0,2.77,1.42c1.16.49,2.25,1,3.28,1.54s2,1,3,1.47,1.75.76,2.62,1.1,1.74.67,2.68,1a52.43,52.43,0,0,0,5.52,1.39c2.15.42,4.31.72,6.46,1l3.25.35c1.09.11,2.16.17,3.24.3.44,0,.9.08,1.36.11h1.37c.88,0,1.85,0,2.78-.13l1.36-.1.68,0,.68-.07,2.07-.23c.7-.07,1.44-.23,2.1-.34s1.37-.24,2-.39,1.38-.32,2.06-.52a32.22,32.22,0,0,0,4-1.44c.33-.14.65-.29,1-.45s.68-.32,1-.5c.61-.34,1.24-.7,1.86-1.1.28-.18.57-.38.85-.58s.6-.45.8-.61l.79-.67c.26-.23.51-.49.77-.73s.48-.52.72-.78.21-.22.4-.46l.33-.43c.11-.15.22-.31.32-.47h0l0,0v0l0-.06.13-.2,0,0h0l.25-.36c.16-.26.27-.41.49-.75a4.53,4.53,0,0,0,.31-.59l.18-.37.36-.75a8.12,8.12,0,0,0,.36-1.06l.13-.39a5.44,5.44,0,0,0,.15-.54c.08-.35.13-.68.18-1l.07-.43,0-.2,0-.11,0-.18a8.18,8.18,0,0,0,0-1h0v-.31h0a9,9,0,0,0,0-1ZM107,15l-.8-.09c.29,0,.57.05.85.09ZM44.56,64.06A52.73,52.73,0,0,1,52.05,47.4a45.29,45.29,0,0,1,4.83-6.18c1.88-1.95,3.8-3.85,5.86-5.63a43.5,43.5,0,0,1,6.56-4.74c1.57-.88,3.39-2,4.77-2.86a13.17,13.17,0,0,1,1.41-.81c.48-.26.93-.47,1.4-.67.92-.39,1.83-.7,2.69-1l2.36-.81L84.27,24c1.57-.48,3.14-.93,4.74-1.35a52.7,52.7,0,0,1,5.55-1.19,30,30,0,0,1,5.6-.36c.75,0,1.59,0,2.37,0a40.46,40.46,0,0,1,4.68.12,31.08,31.08,0,0,1,3.41.54,25.48,25.48,0,0,1,3.26,1c.52.2,1,.41,1.54.65a7.3,7.3,0,0,1,.68.36l.74.43a11.18,11.18,0,0,1,1.29.89l.14.11.13.11h0l0,0,.07.07.26.23.37.36a.24.24,0,0,0,0,.07,2.63,2.63,0,0,0,.07.36l.06.17,0,.1,0,.07.32-.16,0,.06.1.15,0,0,.31.49c.1.16.18.28.26.43a5.5,5.5,0,0,1,.63,1.73h0a4.12,4.12,0,0,1,.06,1.21,6.93,6.93,0,0,1-.21,1.09,10.16,10.16,0,0,1-.38,1.14,15.68,15.68,0,0,1-1.16,2.27c-.46.73-1,1.48-1.56,2.23s-1.14,1.47-1.75,2.19c-2.31,2.78-4.88,5.5-7.38,8.35a87.88,87.88,0,0,0-6.11,7.6c-.75,1.08-1.47,2.18-2.15,3.33s-1.31,2.34-1.89,3.56a35.07,35.07,0,0,0-2.59,7.7,31.41,31.41,0,0,0-.58,4.23c0,.35,0,.7-.06,1.07s0,.74,0,1.11c0,.71,0,1.42.11,2.13a32,32,0,0,0,1.89,8.29c.38,1,.94,2,1.38,3,2.85,6.24,7.11,11.39,11.46,16.16a108.14,108.14,0,0,1,7.24,8.59c.33.44.64.89.95,1.35s.56.87.81,1.31a11.92,11.92,0,0,1,1.13,2.64c.06.22.11.43.15.64a5.28,5.28,0,0,1,.08.58,3.55,3.55,0,0,1-.06,1,4.25,4.25,0,0,1-.33,1c-.08.18-.18.36-.28.54l-.16.27-.23.33c-1.84,2.78-6.18,4.44-10.33,5.07h0c-.93.14-1.89.25-2.85.31h0a46.1,46.1,0,0,1-5,0c-1.38,0-2.77-.12-4.17-.22-.69,0-1.38-.1-2.06-.18s-1.39-.16-2.09-.26c0,0,0-.14,0-.16a71.21,71.21,0,0,1-9.41-2.7c-.6-.22-1.17-.42-1.77-.66l-1.79-.73c-1.18-.5-2.34-1-3.46-1.58l-.91-.44-.83-.43c-.55-.29-1.1-.59-1.66-.91s-1.1-.65-1.65-1-1.12-.67-1.63-1a58.72,58.72,0,0,1-11.06-9.64,56.65,56.65,0,0,1-6.79-9.3,51.41,51.41,0,0,1-4.66-10.52A49.23,49.23,0,0,1,46,84.65c-.18-.92-.32-1.84-.44-2.77l-.17-1.27c-.13-1-.21-1.93-.33-2.89a3.46,3.46,0,0,0-.81-1.83,7.44,7.44,0,0,0-.14.78c0,.35,0,.7,0,1a6.31,6.31,0,0,0-.17,2,4.44,4.44,0,0,1,0,1,2.74,2.74,0,0,0,0,.5l0,.13.07.43c.06.3.12.6.19.9a6.87,6.87,0,0,1,.11.87,33.39,33.39,0,0,0,2,8.64c.55,1.39,1,3,1.57,4.51.28.7.52,1.43.85,2.08a52.89,52.89,0,0,0,2.91,4.86,25.07,25.07,0,0,1,2.27,3.76A9.79,9.79,0,0,0,55.09,109c.78.9,2.13,2.08,2.33,2.48a5.93,5.93,0,0,0,2.33,2.36,17.88,17.88,0,0,1,1.7,1.75,17.64,17.64,0,0,0,1.79,1.93,8.18,8.18,0,0,1,1.59,1.08c.46.38.86.8,1.31,1.22a7.67,7.67,0,0,0,1.17.9c1.71.8,3.35,2,5,3l1-.08c.91.64,1.08,1.33,2.56,1.64.06,0,.46.33.72.51a8.48,8.48,0,0,0,1.15.76c1.48.72,3,1.41,4.54,2s3.11,1.16,4.71,1.63a17,17,0,0,0,2.74.44A20.35,20.35,0,0,0,96,132c2.48.12,4.85.47,7.24.66a61.66,61.66,0,0,1-7.67-.54,65.91,65.91,0,0,1-14.1-3.62,67.75,67.75,0,0,1-6.56-2.92A63.84,63.84,0,0,1,68.72,122a59.19,59.19,0,0,1-19-20.08,52.87,52.87,0,0,1-7-26c0-1.52.08-3.05.21-4.57C43.37,69,43.93,66.6,44.56,64.06Zm64.2,68.25-.5.07Z"/><path class="cls-1" d="M129.88,87l.18.2A1.31,1.31,0,0,0,129.88,87Z"/><path class="cls-1" d="M128.91,85.4h-.08C128.91,85.45,129,85.47,128.91,85.4Z"/><path class="cls-1" d="M126.55,71.2a3.54,3.54,0,0,0,.17-.48Z"/><path class="cls-1" d="M132.59,97.6l.19.3C132.75,97.41,132.68,97.63,132.59,97.6Z"/><path class="cls-1" d="M117.35,89l0-.09S117.31,89,117.35,89Z"/><path class="cls-1" d="M130.49,40.41v0S130.47,40.42,130.49,40.41Z"/><path class="cls-1" d="M128.28,106.18l0,.06.09.14v-.07C128.29,106.17,128.28,106.17,128.28,106.18Z"/><path class="cls-1" d="M131.84,58.12v0Z"/><path class="cls-1" d="M131.82,59.07a1.36,1.36,0,0,1,0-.94l-.51.24Z"/><path class="cls-1" d="M132.56,97.57a1.17,1.17,0,0,1-.1-.33,8.5,8.5,0,0,0-.15-2.57l.22-.59c-.13-.77-.27.8-.49-.49-.18-.91.2-.37.24-.7a4.7,4.7,0,0,1-.51-2.1,4.66,4.66,0,0,1,.17.77c0-.23,0-.45,0-.69.39.77.38,1.36.5.7-.27,0-.37-.63-.54-1.32-.05-.17-.1-.35-.17-.53a2.24,2.24,0,0,0-.24-.49c-.16-.23-.31-.36-.43-.32l-.14-.44c.06.11.1.11.16.23a.79.79,0,0,0-.49-.63,1.32,1.32,0,0,1-.68-.65c-.17-.33-.24-.58-.06-.41l-.53-.6c-.12-.2,0-.2.1,0-.23-.33-.43-.67-.64-1h0a7.28,7.28,0,0,1-.58-.54c-.07-.31.12.11.14,0-.14-.18-.26-.36-.4-.55,0-.3.35.15.54.56a.62.62,0,0,0-.13-.67,1.85,1.85,0,0,1-.46-1.1l.29.55c.13-.48-.16-.88-.18-1.59,0,.09,0,.45-.07.72s-.09.43-.28.12a1.9,1.9,0,0,0-.31-.8c.17,0,0-.4-.1-.85l.24,0c-.19-.47-.31-.4-.47-.67-.09-.57.07-.72.21-.87-.12-.9-.21.67-.42-.39a4.93,4.93,0,0,0-.13-1c-.06-.34-.15-.7-.26-1.15,0-.54.16.09.21-.11s-.15-.31-.22-.47.06-.08.09-.06c-.08-.4-.24,0-.32-.66-.14-.08-.06-.41,0-.82a2.16,2.16,0,0,0,.06-1.28c.08-.19.15.1.25.05a15.67,15.67,0,0,0-.28-1.84l.26-.72c-.25.52-.39-.21-.45-.87a.47.47,0,0,0-.06.09c0-.08,0-.17,0-.25l0,.16.07-.1-.07-.18c0-.16.07-.32.1-.47.08,0,.13.15.19.32l-.22.33c.09.27.22.52.37.5a1.13,1.13,0,0,1,0-.33c0,.07.06.11.09.09s0-.14,0-.31l.31-.17-.1-.07c.13-.42.3-.81.46-1.21a7.27,7.27,0,0,1,.36-3.27c0,.42.26.21.47.33-.4.26-.36,1.07-.65,1.76.14-.37.23-.24.23-.14.09-.43.16-.88.29-1.32.16.11.25-.2.47-.48-.47.07.22-1,.41-1.54.13,0,.17.22-.18.78.61-.49.08-1,.69-1.55-.09.14-.15.21-.13.3.1-.39.71-1.14.68-.89l-.09.14A12.35,12.35,0,0,0,131,61l.12-.27c0-.1.07-.21.09-.3s.06-.34.08-.48,0-.46-.09-.52a1.24,1.24,0,0,1,.4.31,15.51,15.51,0,0,0-.5-1.5c0-.21,0-.42.08-.64.31,0,.67-.13.7.53a2.91,2.91,0,0,0,.13-1.17c-.06.18-.45.41-.45.16a6.21,6.21,0,0,0,.55-1.28c-.08.27-.49-.07-.44-.5.06.07.43,0,.46.16l-.35-1.11c.06.28.36.07.5-.16-.09.11.06-.93,0-1.22l-.12.45c.13-1.22-.54-1.23-.48-2.43.08.15.54.38.61-.23a9.8,9.8,0,0,1-.66-1c0-.45,0-.9,0-1.35a14.33,14.33,0,0,1,.71,1.71c.11-.46.15-.13.15-.81.13-.24.18.37.18.58l.1-1.6c-.26.07-.25-1.22-.47-1.16l.26,1.73c-.26.07-.72-1-.68-2.12.1-.29.46.21.54.19a3.76,3.76,0,0,1-.12-1.18l.15.48a2.09,2.09,0,0,0-.12-.84,2.34,2.34,0,0,1,0-1.11,7,7,0,0,1,.12-.82c0-.3.06-.56,0-.53a1.81,1.81,0,0,1-.84,1.11c0-.3,0-.59,0-.87l.09-.08V43l-.09.12c0-.32,0-.62-.07-.9s.15-.22.25-.23.27,0,.32-.34c-.06.07-.17-.07-.21-.14,0-.39.19-.23,0-.8-.19.29-.34-1.13-.21.08a9,9,0,0,0-.39-1.13c0,.18-.07.24-.21.17l-.15-.05h-.06c-.1.24-.2.47-.29.7,0,0,0,0,0,0-.47,1.07-.76,1.5-1.24,2.5-.08,0-.4.53-.36.17a3.4,3.4,0,0,1-.24.83c-.55.63.39-.88-.1-.49a1.67,1.67,0,0,1-.15.71c-.08.26-.19.58-.25.81.28,0,.5-.93.72-1.61a1.14,1.14,0,0,1,.11.57c-.51,1.08-1,2.11-1.54,3.1-.45.61-1.33,2.5-2.09,3.44a2.36,2.36,0,0,0-.11.51c-.59,1-1.19,2-1.77,2.88h0l-.61,1a.09.09,0,0,0-.08-.05l-.26.57,0,0s0-.24-.1-.12c0,0,0,.15,0,.29s-.34.53-.52.78c0,0,0,0,0,0v0l-.45.66-.08.08a.91.91,0,0,1-.09.17c-4.47,6.58-8,11.2-8,17.88,0,.48,0,1,.06,1.42-.14.26-.28.52-.44.5a2.61,2.61,0,0,1,.15,1.3,4.46,4.46,0,0,0,0,.81,1.87,1.87,0,0,0,.36.77c0,.26-.17-.17-.21,0a2.09,2.09,0,0,1,.46,1.19l0-.06c.32.84.54,1.44.75,2.08s.48,1.29.93,2.19l.08-.22a3,3,0,0,1,.25.69c.48.29-.59-1.06-.1-.81a4.58,4.58,0,0,0,.71,1.63c.38.62.75,1.22.67,1.5.35.56.07-.28.42.28v.21l.21.05c.22.37.22.63.15.7a2.51,2.51,0,0,0-.25-.32,11.37,11.37,0,0,0,1,1.46l-.29-.56c1.09,1.42,2.19,3.27,3.33,4.56v-.16c.84,1,.49.92,1.34,2.07l0,0a3.23,3.23,0,0,1,.67.83c-.28-.25.19.68-.15.34.88,1.1.48.51,1.24,1.14v.25a2.13,2.13,0,0,1,.73.8c-.39-.45.05.5-.42,0,.48,1.44,1.39,1.75,1.31,2.58.67.42-.42-1.24-.17-.94,0-.35.53.35.71.79s-.06.95.51,2a2.43,2.43,0,0,0-.14-.2c.13.43.53.71.62,1.28.34.18.29.65.6.6l-.53-1a9.52,9.52,0,0,0,.62.77,5.21,5.21,0,0,1,.32.49,4,4,0,0,1,.33.79,2.67,2.67,0,0,1-.48-.57c.11.43.39.66.5,1.14-.12.11-.33-.35-.61-.89l-.19-.38L128,106a2.58,2.58,0,0,0-.35-.48c0,.35.75,1,.31.88a.9.9,0,0,1,.22.19,1.85,1.85,0,0,1,.19.27,3.71,3.71,0,0,1,.3.66l.16.4.08.2a.65.65,0,0,0,.09.17,1.15,1.15,0,0,0,.37.36l-.11.18a1.62,1.62,0,0,1,.38.42l-.32-.09a2.23,2.23,0,0,1,.56.83,4.45,4.45,0,0,0,.54.88c-.78-1.13-.15-.5-.44-1.14a4.54,4.54,0,0,1,.7,1.29,3.68,3.68,0,0,0,.29.62.62.62,0,0,0,.33-.13,1.53,1.53,0,0,0,.31-.28.55.55,0,0,1-.28.18c-.1,0-.16,0,0-.13a1.55,1.55,0,0,1,.56-.33,1.31,1.31,0,0,0,.19-.47c0-.08,0-.08-.07-.06s-.2.11-.14-.2c.28,0,.17-.71.2-1.47l.15.27a2,2,0,0,0,0-1.35,1.85,1.85,0,0,1,0-1.14c.07.29.14.6.19.94,0-.34,0-.69,0-1,.07.1.13.21.2.32,0-.31,0-.56-.05-.77s0-.43,0-.55,0-.47.08-.82c-.14.16-.33-.09-.33-.71.11-.42.17.24.15-.64a.75.75,0,0,1,.09.8c.06,0,.11.19.17.24a5.71,5.71,0,0,0,0-1.47,1.63,1.63,0,0,1,0,.35l-.26-1.27c.07-.21.13,0,.18.11,0-.26-.11-.44-.13-.81.15.09.31.07.39.6l-.19-1.21c.06-.08.17-.62.22-.47C132.9,99.43,132.49,98.46,132.56,97.57Zm-4.58-14c-.26-.11-.23-.29-.28-.59C127.8,83.08,128,83.36,128,83.52ZM126.56,69.6a1.44,1.44,0,0,1,.17-.55A1,1,0,0,1,126.56,69.6Z"/><path class="cls-1" d="M126.65,70.67a.2.2,0,0,1-.11.06C126.56,70.8,126.59,70.81,126.65,70.67Z"/><path class="cls-1" d="M132.56,97.54v0l0,0Z"/><path class="cls-1" d="M132,41a2.56,2.56,0,0,1,0,.56C132.05,41.55,132.07,41.38,132,41Z"/><polygon class="cls-1" points="123.99 52.96 124.23 52.6 123.86 53.09 123.99 52.96"/><path class="cls-1" d="M127.24,46.94l-.2-.13-.07.32A.67.67,0,0,1,127.24,46.94Z"/><path class="cls-1" d="M127.71,45.19c0,.09-.21.72.1.19C127.78,45.29,128.06,44.43,127.71,45.19Z"/><path class="cls-1" d="M132.29,51.61c.08.48,0,.73.28.52.12-.79-.23-.2-.09-.91C132.39,51,132.36,51.8,132.29,51.61Z"/><path class="cls-1" d="M132.29,51.61c0-.08,0-.16,0-.25A1,1,0,0,0,132.29,51.61Z"/><path class="cls-1" d="M127.75,81.9c0-.13,0-.26,0-.39l-.07,0C127.67,81.57,127.68,81.69,127.75,81.9Z"/><polygon class="cls-1" points="130.43 87.41 130.37 87.31 130.31 87.62 130.43 87.41"/><path class="cls-1" d="M132.64,93.31c0-.24-.09-.52-.11-.76C132.63,93.07,132.37,93.41,132.64,93.31Z"/><path class="cls-1" d="M58.55,93.93a52.34,52.34,0,0,0,7.07,11.61,50.3,50.3,0,0,0,7.57,7.52l2.15,1.61c.72.53,1.49,1,2.24,1.48a39.15,39.15,0,0,0,9.65,4.45c.85.25,1.7.47,2.57.66l.86.17.43.06a21.39,21.39,0,0,0,3.29.29,3.44,3.44,0,0,0,2.07-.69c-.41-.08-.62-.15-.84-.17a8.47,8.47,0,0,1-1.13-.08,11.39,11.39,0,0,0-2-.51,3.52,3.52,0,0,1-1.06-.22,4.7,4.7,0,0,0-.51-.12l-.14,0-.38-.06-.81-.1a5.3,5.3,0,0,1-.74-.21,66.56,66.56,0,0,1-7.21-2.95,18.49,18.49,0,0,1-3.49-2.28c-.52-.39-1-.81-1.54-1.18l-2-1.41c-.66-.49-1.28-1-1.91-1.53a13,13,0,0,1-1.44-1.32,8.06,8.06,0,0,1-1.12-1.47A6.77,6.77,0,0,0,69,106.19a13.8,13.8,0,0,1-2-2.12,5.66,5.66,0,0,0-1.77-2.25A7.59,7.59,0,0,1,64.17,100a16.21,16.21,0,0,0-1-2,7.2,7.2,0,0,1-1.48-2.77,4.73,4.73,0,0,0-.5-1.15,10.72,10.72,0,0,1-.67-1c-.19-.36-.35-.75-.51-1.14-.31-.78-.62-1.56-.86-2.35l-.76-.5a6.79,6.79,0,0,1-.06-1.24,2.44,2.44,0,0,0-.43-1.35,7.32,7.32,0,0,1,0-.76c0-.39,0-.77-.08-1.18a40.92,40.92,0,0,1-.6-8.41c0-.75-.12-1.55-.14-2.35a23.59,23.59,0,0,0,.61-2.62c.22-.93.36-1.88.47-2.71.09-.52.2-1,.32-1.53a12.63,12.63,0,0,1,.45-1.48c.18-.48.37-1,.57-1.42l.3-.69.3-.6a39.37,39.37,0,0,0-2.76,14c0,14.14,9.14,29.64,22.22,37.7a32.33,32.33,0,0,0,16.91,5.16,26.91,26.91,0,0,0,3.81-.28,18,18,0,0,0,6.25-1.21,4.31,4.31,0,0,0,1.1-7.39,5,5,0,0,0-4.32-1c-.19,0-.37.11-.56.17l-.46.15-.88.29-.9.22-.45.11-.45.07-.79.13-.8.07c-.53.07-1.06,0-1.6.07a13.47,13.47,0,0,1-3.12-.4,30.09,30.09,0,0,1-6.2-2.3,22.09,22.09,0,0,1-2.89-1.7l-1.36-1c-.43-.36-.85-.72-1.26-1.09-1.1-1-2.35-2.17-3.44-3a15.25,15.25,0,0,1-3.19-3.83c-1.5-2.31-2.89-4.61-4.14-7a23.78,23.78,0,0,1-2.88-8.78c0-.3-.07-.62-.13-.94s-.07-.65-.12-1c-.08-.63-.19-1.27-.21-1.9a13.36,13.36,0,0,1-.06-1.9l.07-1.43.19-1.42c0-.24.06-.48.1-.72l.14-.7c.11-.48.19-.95.31-1.42.27-.93.48-1.87.84-2.78.16-.46.31-.92.49-1.37L70.11,65l.26-.62.3-.61.61-1.22c.42-.8.88-1.58,1.34-2.36a42,42,0,0,1,5.77-7.29,36,36,0,0,1,6.88-5.51A25.42,25.42,0,0,1,92,44.49a17.67,17.67,0,0,1,5.53-.55,15.46,15.46,0,0,1,2.69.47l.65.18.65.23.7.26a7.14,7.14,0,0,0,1.2.34,6.76,6.76,0,0,0,5-1,6.32,6.32,0,0,0,2.79-4.51,6.23,6.23,0,0,0-1.79-5.06,6.49,6.49,0,0,0-2.2-1.47l-1.7-.65c-.9-.27-1.84-.44-2.74-.64A28.83,28.83,0,0,0,85.43,33.2a43.1,43.1,0,0,0-9.16,4.71c-.28.2-.58.37-.85.58l-.81.61c-.54.42-1.09.82-1.62,1.24l-1.54,1.34c-.26.22-.52.43-.77.67l-.73.71L68.5,44.48,67.14,46l-.68.76-.64.79-1.28,1.58-1.18,1.65-.59.83-.54.85-1.08,1.72-1,1.78-.49.89-.44.92-.88,1.84-.76,1.89-.38,1-.32,1c-.2.61-.4,1.23-.58,1.85l-.42,1.9-.2.95-.13,1L55.29,71s-.14,0-.14,0a35.84,35.84,0,0,0-.39,9.2A45.08,45.08,0,0,0,58.55,93.93ZM62,58.38l.08-.15Z"/></g></svg>